<?xml version="1.0" encoding="UTF-8" standalone="no"?>
<svg
   xmlns:dc="http://purl.org/dc/elements/1.1/"
   xmlns:cc="http://creativecommons.org/ns#"
   xmlns:rdf="http://www.w3.org/1999/02/22-rdf-syntax-ns#"
   xmlns:svg="http://www.w3.org/2000/svg"
   xmlns="http://www.w3.org/2000/svg"
   height="25"
   width="25"
   id="svg839"
   version="1.1"
   viewBox="0 0 25 25.000001">
  <metadata
     id="metadata845">
    <rdf:RDF>
      <cc:Work
         rdf:about="">
        <dc:format>image/svg+xml</dc:format>
        <dc:type
           rdf:resource="http://purl.org/dc/dcmitype/StillImage" />
        <dc:title></dc:title>
      </cc:Work>
    </rdf:RDF>
  </metadata>
  <defs
     id="defs843" />
  <g
     transform="matrix(1.2252711,0,0,1.2252711,0.30855256,-641.91506)"
     id="g851">
    <path
       d="m 19.95,534.3328 c 0,-0.69347 -0.05623,-1.39069 -0.176178,-2.07291 h -9.622341 v 3.92841 h 5.510261 c -0.228657,1.26698 -0.963359,2.38778 -2.039171,3.09999 v 2.54896 h 3.287414 C 18.840451,540.06047 19.95,537.43654 19.95,534.3328 Z"
       id="path831"
       style="fill:#4285f4;stroke-width:0.03748477" />
    <path
       d="m 10.151481,544.3 c 2.751382,0 5.071689,-0.90338 6.762252,-2.46275 l -3.287414,-2.54896 c -0.914628,0.62224 -2.095399,0.9746 -3.47109,0.9746 -2.6614187,0 -4.9180019,-1.79552 -5.727673,-4.20954 H 1.0351841 v 2.62768 C 2.7669806,542.12588 6.2942976,544.3 10.151481,544.3 Z"
       id="path833"
       style="fill:#34a853;stroke-width:0.03748477" />
    <path
       d="m 4.4238075,536.05335 c -0.4273264,-1.26699 -0.4273264,-2.63893 0,-3.90591 v -2.62769 H 1.0351841 c -1.44691215,2.88258 -1.44691215,6.2787 0,9.16128 z"
       id="path835"
       style="fill:#fbbc04;stroke-width:0.03748477" />
    <path
       d="m 10.151481,527.93415 c 1.454409,-0.0225 2.860088,0.52479 3.91341,1.52938 l 2.912567,-2.91257 c -1.844251,-1.7318 -4.292007,-2.68391 -6.825977,-2.65392 -3.8571834,0 -7.3845004,2.17412 -9.1162969,5.62271 l 3.3886234,2.62769 c 0.8059226,-2.41777 3.0662543,-4.21329 5.7276735,-4.21329 z"
       id="path837"
       style="fill:#ea4335;stroke-width:0.03748477" />
  </g>
</svg>
